<mxfile host="app.diagrams.net" modified="2023-07-17T09:27:05.250Z" agent="Mozilla/5.0 (X11; Linux x86_64) AppleWebKit/537.36 (KHTML, like Gecko) Chrome/114.0.0.0 Safari/537.36" version="21.6.2" etag="6_WmrZ99khsuQ7l80ouf" type="github">
  <diagram name="Page-1" id="lBkxF6mdt1fFrcNin6hs">
    <mxGraphModel>
      <root>
        <mxCell id="0" />
        <mxCell id="1" parent="0" />
      </root>
    </mxGraphModel>
  </diagram>
</mxfile>
